<svg xmlns="http://www.w3.org/2000/svg" viewBox="0 0 320 80" width="320" height="80">
  <g transform="translate(10, 8)">
    <!-- ALP 3-blade Pinwheel Turbine Icon -->
    <g transform="translate(32, 32)">
      <!-- Blade 1 (Top / Right) -->
      <path d="M 0 -24 C 14 -24, 25 -14, 25 0 C 25 5, 23 10, 20 14 C 28 8, 30 -2, 28 -12 C 26 -20, 18 -26, 8 -27 C 3 -27.5, -2 -26, -6 -24 Z" fill="#009fe3"/>
      <!-- Blade 2 (Bottom / Right) -->
      <path d="M 0 -24 C 14 -24, 25 -14, 25 0 C 25 5, 23 10, 20 14 C 28 8, 30 -2, 28 -12 C 26 -20, 18 -26, 8 -27 C 3 -27.5, -2 -26, -6 -24 Z" fill="#009fe3" transform="rotate(120)"/>
      <!-- Blade 3 (Bottom / Left) -->
      <path d="M 0 -24 C 14 -24, 25 -14, 25 0 C 25 5, 23 10, 20 14 C 28 8, 30 -2, 28 -12 C 26 -20, 18 -26, 8 -27 C 3 -27.5, -2 -26, -6 -24 Z" fill="#009fe3" transform="rotate(240)"/>
      <!-- Center ring & core -->
      <circle cx="0" cy="0" r="23" fill="none" stroke="#009fe3" stroke-width="9"/>
      <circle cx="0" cy="0" r="14" fill="#ffffff"/>
    </g>
  </g>
  <!-- ALP GROUP Typography -->
  <text x="96" y="49" font-family="'Inter', -apple-system, BlinkMacSystemFont, 'Segoe UI', Roboto, sans-serif" font-size="31" font-weight="800" letter-spacing="0.04em" fill="#737373">ALP GROUP</text>
</svg>
